# xmcd CD database file
#
# Track frame offsets:
#	150
#	20882
#	47882
#	59427
#	73567
#	82464
#	103025
#	118169
#	141741
#	156241
#	179064
#	198373
#	208487
#	230457
#	295412
#	332595
#
# Disc length: 4722 seconds
#
# Revision: 0
# Processed by: cddbd v1.5.1PL2 Copyright (c) Steve Scherf et al.
# Submitted via: Feurio! 1.68 - http://www.feurio.com
#
DISCID=11127010
DTITLE=Ten Years After - Blues Mix
DYEAR=1900
DGENRE=Bluesrock
TTITLE0=Alvin Lee and Ten Years After - Woman Trouble
TTITLE1=Alvin Lee and Ten Years After - Spoonful
TTITLE2=Alvin Lee and Ten Years After - Don't Want You Woman
TTITLE3=Alvin Lee and Ten Years After - Keep Running Cowboy
TTITLE4=Alvin Lee and Ten Years After - Two Time Mama
TTITLE5=Alvin Lee and Ten Years After - Going To Try
TTITLE6=Alvin Lee and Ten Years After - A Sad Song
TTITLE7=Alvin Lee and Ten Years After - Turned Off TV Blues
TTITLE8=Alvin Lee and Ten Years After - She's So Cute
TTITLE9=Alvin Lee and Ten Years After - Highway Of Love
TTITLE10=Alvin Lee and Ten Years After - Let The Sky Fall
TTITLE11=Alvin Lee and Ten Years After - Two minute Boogie
TTITLE12=Alvin Lee and Ten Years After - House Of The Rising Sun
TTITLE13=Alvin Lee and Ten Years After - Boogie On
TTITLE14=Alvin Lee and Ten Years After - Long Legs
TTITLE15=Alvin Lee and Ten Years After - Women Trouble (US version)
EXTD=
EXTT0=
EXTT1=
EXTT2=
EXTT3=
EXTT4=
EXTT5=
EXTT6=
EXTT7=
EXTT8=
EXTT9=
EXTT10=
EXTT11=
EXTT12=
EXTT13=
EXTT14=
EXTT15=
PLAYORDER=
